<svg width="3285" height="593" viewBox="0 0 3285 593" fill="none" xmlns="http://www.w3.org/2000/svg">
<mask id="mask0_0_1" style="mask-type:alpha" maskUnits="userSpaceOnUse" x="0" y="0" width="593" height="593">
<circle cx="296.5" cy="296.5" r="296.5" fill="#F8F8F8"/>
</mask>
<g mask="url(#mask0_0_1)">
<circle cx="296.5" cy="296.5" r="289" fill="white" stroke="#1B263B" stroke-width="15"/>
<path d="M471.02 167.243H488.736V760.052H471.02V167.243Z" fill="#1B263B"/>
<circle cx="479.915" cy="163.619" r="42.1885" fill="#1B263B"/>
<path d="M103.069 419.357H119.423V-168H103.069V419.357Z" fill="#1B263B"/>
<circle cx="42.1885" cy="42.1885" r="42.1885" transform="matrix(1 0 0 -1 69 466.532)" fill="#1B263B"/>
<path d="M196.954 442.063V406.06H325.297C335.18 406.06 343.651 403.801 350.711 399.282C357.77 394.482 363.277 388.411 367.23 381.069C371.184 373.727 373.16 365.961 373.16 357.772C373.16 349.301 371.184 341.535 367.23 334.476C363.559 327.134 358.194 321.345 351.134 317.109C344.357 312.591 336.027 310.332 326.144 310.332H270.232C253.572 310.332 238.888 306.944 226.181 300.167C213.474 293.107 203.449 283.506 196.107 271.364C189.048 258.939 185.518 244.961 185.518 229.43C185.518 213.617 188.906 199.356 195.684 186.649C202.743 173.942 212.485 163.918 224.91 156.576C237.617 149.234 252.16 145.563 268.538 145.563H394.339V181.566H272.35C263.031 181.566 254.842 183.825 247.783 188.344C240.723 192.579 235.358 198.227 231.687 205.286C228.016 212.064 226.181 219.405 226.181 227.312C226.181 234.936 227.875 242.278 231.264 249.338C234.935 256.115 240.159 261.621 246.936 265.857C253.995 270.093 262.043 272.211 271.079 272.211H328.262C346.052 272.211 361.3 275.741 374.007 282.8C386.715 289.86 396.457 299.461 403.234 311.603C410.011 323.745 413.4 337.582 413.4 353.113C413.4 370.338 409.87 385.728 402.81 399.282C396.033 412.554 386.291 423.002 373.584 430.627C360.877 438.251 346.334 442.063 329.956 442.063H196.954Z" fill="#1B263B"/>
<path d="M425.914 163.619L358.835 222L358.835 163.619L358.835 104.556L425.914 163.619Z" fill="#0D1B2A"/>
<path d="M165.19 424.344L232.269 478.5L232.269 424.344L232.269 370L165.19 424.344Z" fill="#0D1B2A"/>
</g>
<path d="M783.188 429.402C771.011 429.402 758.713 426.723 746.293 421.365C733.873 416.251 722.914 409.067 713.416 399.813C704.162 390.558 697.951 380.086 694.785 368.397L713.416 361.091C718.043 375.946 727.054 387.758 740.448 396.525C754.086 405.049 768.333 409.31 783.188 409.31C794.391 409.31 804.619 406.997 813.873 402.37C823.128 397.499 830.434 390.802 835.791 382.278C841.149 373.511 843.828 363.648 843.828 352.689C843.828 340.999 840.54 331.38 833.965 323.83C827.633 316.281 816.796 308.731 801.453 301.182C780.753 291.197 765.045 283.038 754.329 276.707C743.614 270.375 734.847 262.947 728.028 254.423C721.209 245.656 717.799 235.306 717.799 223.373C717.799 211.683 720.965 201.333 727.297 192.322C733.629 183.311 742.031 176.371 752.503 171.5C763.218 166.629 774.664 164.194 786.841 164.194C797.069 164.194 806.567 166.142 815.334 170.039C824.345 173.692 831.286 178.928 836.157 185.747C841.271 192.322 843.584 199.75 843.097 208.03L822.64 206.934C822.64 199.872 818.744 194.392 810.951 190.496C803.401 186.356 795.121 184.286 786.11 184.286C773.447 184.286 762.488 187.939 753.233 195.245C744.223 202.551 739.717 211.561 739.717 222.277C739.717 230.557 742.518 237.985 748.119 244.56C753.721 251.136 760.296 256.737 767.845 261.364C775.639 265.748 785.38 270.618 797.069 275.976C799.505 277.194 802.062 278.411 804.741 279.629C807.42 280.847 809.977 282.186 812.412 283.647C831.651 293.876 845.289 304.348 853.326 315.063C861.606 325.535 865.746 338.199 865.746 353.054C865.746 367.91 861.849 381.182 854.056 392.872C846.507 404.318 836.4 413.329 823.736 419.904C811.073 426.236 797.557 429.402 783.188 429.402ZM983.675 423.557C957.13 423.557 936.186 415.399 920.843 399.082C905.744 382.765 898.195 360.482 898.195 332.232C898.195 312.749 901.848 295.58 909.154 280.725C916.46 265.626 926.81 254.058 940.204 246.021C953.599 237.741 969.063 233.601 986.597 233.601C996.339 233.601 1005.35 235.428 1013.63 239.081C1022.15 242.49 1030.92 248.091 1039.93 255.884L1025.32 269.035C1019.72 263.434 1013.87 259.416 1007.78 256.98C1001.94 254.545 994.878 253.327 986.597 253.327C966.384 253.327 950.189 260.633 938.012 275.245C926.079 289.614 920.113 308.975 920.113 333.328C920.113 355.733 925.714 373.146 936.917 385.566C948.363 397.743 964.558 403.831 985.501 403.831C1003.28 403.831 1022.52 398.108 1043.22 386.662L1052.72 402.004C1042.73 408.823 1031.65 414.181 1019.47 418.078C1007.54 421.731 995.608 423.557 983.675 423.557ZM1162.81 234.697C1170.11 234.697 1177.42 235.793 1184.73 237.985V258.442C1177.66 256.737 1170.6 255.884 1163.54 255.884C1151.12 255.884 1141.01 258.929 1133.22 265.017C1125.43 271.105 1118.49 279.751 1112.4 290.953V421H1090.48V293.145C1090.48 273.906 1085.37 259.781 1075.14 250.77L1089.75 236.158C1094.13 238.837 1098.27 242.855 1102.17 248.213C1106.07 253.571 1108.87 259.537 1110.57 266.113C1117.39 254.91 1124.21 247.239 1131.03 243.099C1139.55 237.498 1150.15 234.697 1162.81 234.697ZM1345.89 423.922C1341.27 420.269 1337.49 416.251 1334.57 411.868C1331.89 407.484 1329.33 401.761 1326.9 394.698C1322.03 404.196 1314.72 411.624 1304.98 416.982C1295.48 422.096 1283.91 424.653 1270.28 424.653C1251.04 424.653 1235.57 419.539 1223.88 409.31C1212.44 399.082 1206.71 385.201 1206.71 367.666C1206.71 349.158 1213.17 334.789 1226.07 324.561C1239.23 314.332 1257.73 309.218 1281.6 309.218H1323.97V296.067C1323.97 281.455 1320.81 270.618 1314.48 263.556C1308.15 256.493 1298.4 252.962 1285.25 252.962C1275.51 252.962 1265.53 254.789 1255.3 258.442C1245.07 261.851 1235.94 266.6 1227.9 272.688L1218.04 256.615C1227.05 249.065 1237.4 243.342 1249.09 239.446C1261.02 235.306 1273.2 233.236 1285.62 233.236C1305.34 233.236 1320.32 238.35 1330.55 248.578C1340.78 258.563 1345.89 273.054 1345.89 292.049V368.397C1345.89 387.149 1350.64 401.639 1360.14 411.868L1345.89 423.922ZM1270.64 404.927C1286.96 404.927 1299.86 400.421 1309.36 391.411C1319.1 382.4 1323.97 370.71 1323.97 356.342V328.944H1286.71C1266.01 328.944 1251.16 331.989 1242.15 338.077C1233.14 343.922 1228.63 353.663 1228.63 367.301C1228.63 379.478 1232.28 388.854 1239.59 395.429C1246.9 401.761 1257.25 404.927 1270.64 404.927ZM1477.16 235.428C1493.97 235.428 1508.21 239.689 1519.9 248.213C1531.84 256.493 1540.73 267.696 1546.57 281.821C1552.66 295.946 1555.7 311.654 1555.7 328.944C1555.7 347.696 1552.17 364.257 1545.11 378.625C1538.05 392.994 1527.82 404.318 1514.42 412.598C1501.03 420.635 1485.08 424.653 1466.57 424.653C1460.48 424.653 1445.99 423.07 1423.1 419.904V515.978H1402.28V292.414C1402.28 273.175 1397.16 259.05 1386.93 250.04L1401.55 235.428C1405.69 238.35 1409.71 242.368 1413.6 247.483C1417.5 252.597 1420.3 258.198 1422 264.286C1432.48 245.047 1450.86 235.428 1477.16 235.428ZM1464.74 404.927C1487.64 404.927 1504.8 398.351 1516.25 385.201C1527.94 371.806 1533.79 353.663 1533.79 330.771C1533.79 309.096 1528.79 291.075 1518.81 276.707C1509.07 262.338 1495.43 255.154 1477.89 255.154C1464.01 255.154 1451.59 259.416 1440.63 267.939C1429.92 276.463 1424.07 287.544 1423.1 301.182V401.639C1445.5 403.831 1459.39 404.927 1464.74 404.927ZM1609.33 337.346C1609.57 354.394 1613.71 369.98 1621.75 384.105C1629.79 398.23 1645.86 405.292 1669.97 405.292C1680.44 405.292 1690.06 403.953 1698.83 401.274C1707.84 398.595 1717.58 394.211 1728.05 388.123L1737.55 403.466C1727.81 410.041 1716.97 415.277 1705.04 419.174C1693.11 423.07 1680.93 425.018 1668.51 425.018C1642.94 425.018 1622.97 416.86 1608.6 400.543C1594.48 383.983 1587.41 362.308 1587.41 335.52C1587.41 318.229 1590.58 302.034 1596.91 286.935C1603.24 271.592 1612.62 259.172 1625.04 249.674C1637.46 240.177 1652.07 235.428 1668.87 235.428C1683 235.428 1695.79 238.837 1707.23 245.656C1718.92 252.231 1728.05 261.364 1734.63 273.054C1741.45 284.5 1744.86 297.285 1744.86 311.41C1744.86 315.307 1744.74 318.838 1744.49 322.004C1744.25 324.926 1744.01 327.483 1743.76 329.675L1743.03 337.346H1609.33ZM1722.57 317.62C1722.82 315.915 1722.94 313.48 1722.94 310.314C1722.94 300.086 1720.5 290.831 1715.63 282.551C1710.76 274.028 1704.19 267.33 1695.91 262.46C1687.63 257.589 1678.49 255.154 1668.51 255.154C1653.65 255.154 1640.87 260.633 1630.15 271.592C1619.68 282.308 1613.11 297.65 1610.43 317.62H1722.57ZM1878.43 164.194H1885.37L1992.77 421H1969.39L1933.95 338.077H1829.84L1795.14 421H1771.76L1878.43 164.194ZM1890.85 232.14C1886.95 222.399 1883.91 212.901 1881.72 203.647C1878.79 215.093 1875.87 224.59 1872.95 232.14L1838.61 317.62H1925.19L1890.85 232.14ZM2085.32 423.922C2064.87 423.922 2049.28 418.808 2038.56 408.58C2028.09 398.351 2022.86 383.739 2022.86 364.744V238.35H2044.77V360.726C2044.77 374.363 2047.94 385.079 2054.27 392.872C2060.6 400.421 2071.32 404.196 2086.42 404.196C2099.08 404.196 2109.55 401.152 2117.83 395.064C2126.36 388.732 2135.25 379.234 2144.5 366.57V238.35H2166.42V367.301C2166.42 386.297 2171.17 400.665 2180.67 410.406L2167.15 423.557C2161.79 419.661 2157.29 414.668 2153.63 408.58C2150.22 402.248 2147.91 395.916 2146.69 389.584C2138.9 401.761 2129.89 410.528 2119.66 415.886C2109.68 421.244 2098.23 423.922 2085.32 423.922ZM2276.32 426.114C2258.79 426.114 2245.64 421.487 2236.87 412.233C2228.34 402.979 2224.08 388.367 2224.08 368.397V192.688H2246V238.35H2303.35V258.076H2246V368.397C2246 383.739 2248.8 393.968 2254.4 399.082C2260.25 403.953 2267.43 406.388 2275.95 406.388C2281.07 406.388 2285.33 406.144 2288.74 405.657C2292.15 404.927 2295.92 403.344 2300.06 400.909L2309.93 417.712C2300.92 423.314 2289.71 426.114 2276.32 426.114ZM2417.87 424.653C2400.58 424.653 2385.12 420.635 2371.48 412.598C2358.09 404.562 2347.61 393.359 2340.07 378.991C2332.52 364.622 2328.74 348.305 2328.74 330.04C2328.74 311.775 2332.52 295.459 2340.07 281.09C2347.86 266.478 2358.45 255.154 2371.85 247.117C2385.48 238.837 2400.95 234.697 2418.24 234.697C2435.29 234.697 2450.51 238.837 2463.9 247.117C2477.54 255.154 2488.13 266.356 2495.68 280.725C2503.48 295.093 2507.37 311.41 2507.37 329.675C2507.37 347.94 2503.48 364.257 2495.68 378.625C2488.13 392.994 2477.54 404.318 2463.9 412.598C2450.51 420.635 2435.16 424.653 2417.87 424.653ZM2418.24 404.927C2438.45 404.927 2454.65 397.986 2466.82 384.105C2479.24 370.223 2485.45 352.08 2485.45 329.675C2485.45 314.819 2482.65 301.79 2477.05 290.588C2471.45 279.142 2463.54 270.253 2453.31 263.921C2443.08 257.589 2431.39 254.423 2418.24 254.423C2404.84 254.423 2393.03 257.589 2382.81 263.921C2372.58 270.253 2364.66 279.264 2359.06 290.953C2353.46 302.399 2350.66 315.428 2350.66 330.04C2350.66 344.652 2353.46 357.681 2359.06 369.127C2364.66 380.33 2372.58 389.097 2382.81 395.429C2393.03 401.761 2404.84 404.927 2418.24 404.927ZM2551.68 292.049C2551.68 273.297 2546.69 258.929 2536.7 248.944L2550.22 235.428C2560.69 243.221 2567.39 253.571 2570.31 266.478C2577.13 255.763 2585.29 247.848 2594.78 242.734C2604.53 237.376 2615.12 234.697 2626.57 234.697C2638.5 234.697 2648.85 237.498 2657.62 243.099C2666.63 248.7 2673.32 256.859 2677.71 267.574C2684.53 256.859 2692.93 248.7 2702.91 243.099C2713.14 237.498 2723.98 234.697 2735.43 234.697C2751.99 234.697 2765.5 240.055 2775.97 250.77C2786.69 261.486 2791.93 275.976 2791.68 294.241L2790.22 421H2769.03L2769.76 298.259C2769.76 269.035 2757.71 254.423 2733.6 254.423C2712.17 254.423 2695.12 266.6 2682.46 290.953V421H2660.54V298.259C2660.54 284.621 2657.49 273.906 2651.41 266.113C2645.56 258.076 2636.92 254.058 2625.47 254.058C2614.27 254.058 2603.8 257.589 2594.05 264.652C2584.56 271.714 2577.74 280.238 2573.6 290.223V421H2551.68V292.049ZM2969.05 423.922C2964.42 420.269 2960.65 416.251 2957.73 411.868C2955.05 407.484 2952.49 401.761 2950.06 394.698C2945.19 404.196 2937.88 411.624 2928.14 416.982C2918.64 422.096 2907.07 424.653 2893.43 424.653C2874.2 424.653 2858.73 419.539 2847.04 409.31C2835.6 399.082 2829.87 385.201 2829.87 367.666C2829.87 349.158 2836.33 334.789 2849.23 324.561C2862.38 314.332 2880.89 309.218 2904.76 309.218H2947.13V296.067C2947.13 281.455 2943.97 270.618 2937.64 263.556C2931.3 256.493 2921.56 252.962 2908.41 252.962C2898.67 252.962 2888.69 254.789 2878.46 258.442C2868.23 261.851 2859.1 266.6 2851.06 272.688L2841.2 256.615C2850.21 249.065 2860.56 243.342 2872.25 239.446C2884.18 235.306 2896.36 233.236 2908.78 233.236C2928.5 233.236 2943.48 238.35 2953.71 248.578C2963.94 258.563 2969.05 273.054 2969.05 292.049V368.397C2969.05 387.149 2973.8 401.639 2983.3 411.868L2969.05 423.922ZM2893.8 404.927C2910.12 404.927 2923.02 400.421 2932.52 391.411C2942.26 382.4 2947.13 370.71 2947.13 356.342V328.944H2909.87C2889.17 328.944 2874.32 331.989 2865.31 338.077C2856.3 343.922 2851.79 353.663 2851.79 367.301C2851.79 379.478 2855.44 388.854 2862.75 395.429C2870.06 401.761 2880.41 404.927 2893.8 404.927ZM3076.13 426.114C3058.59 426.114 3045.44 421.487 3036.67 412.233C3028.15 402.979 3023.89 388.367 3023.89 368.397V192.688H3045.81V238.35H3103.16V258.076H3045.81V368.397C3045.81 383.739 3048.61 393.968 3054.21 399.082C3060.05 403.953 3067.24 406.388 3075.76 406.388C3080.88 406.388 3085.14 406.144 3088.55 405.657C3091.96 404.927 3095.73 403.344 3099.87 400.909L3109.73 417.712C3100.72 423.314 3089.52 426.114 3076.13 426.114ZM3149.37 337.346C3149.61 354.394 3153.75 369.98 3161.79 384.105C3169.83 398.23 3185.9 405.292 3210.01 405.292C3220.48 405.292 3230.1 403.953 3238.87 401.274C3247.88 398.595 3257.62 394.211 3268.09 388.123L3277.59 403.466C3267.85 410.041 3257.01 415.277 3245.08 419.174C3233.15 423.07 3220.97 425.018 3208.55 425.018C3182.98 425.018 3163.01 416.86 3148.64 400.543C3134.51 383.983 3127.45 362.308 3127.45 335.52C3127.45 318.229 3130.62 302.034 3136.95 286.935C3143.28 271.592 3152.66 259.172 3165.08 249.674C3177.5 240.177 3192.11 235.428 3208.91 235.428C3223.04 235.428 3235.82 238.837 3247.27 245.656C3258.96 252.231 3268.09 261.364 3274.67 273.054C3281.49 284.5 3284.9 297.285 3284.9 311.41C3284.9 315.307 3284.77 318.838 3284.53 322.004C3284.29 324.926 3284.04 327.483 3283.8 329.675L3283.07 337.346H3149.37ZM3262.61 317.62C3262.86 315.915 3262.98 313.48 3262.98 310.314C3262.98 300.086 3260.54 290.831 3255.67 282.551C3250.8 274.028 3244.23 267.33 3235.95 262.46C3227.67 257.589 3218.53 255.154 3208.55 255.154C3193.69 255.154 3180.91 260.633 3170.19 271.592C3159.72 282.308 3153.14 297.65 3150.47 317.62H3262.61Z" fill="white"/>
</svg>
